<mxfile host="app.diagrams.net" modified="2024-05-10T23:08:32.092Z" agent="Mozilla/5.0 (Windows NT 10.0; Win64; x64) AppleWebKit/537.36 (KHTML, like Gecko) Chrome/124.0.0.0 Safari/537.36" etag="zoROmEQ2y5Gn1FmS-YcZ" version="24.4.0" type="device">
  <diagram name="Page-1" id="gLMyDVLKkK5YA8TwTvJd">
    <mxGraphModel dx="1434" dy="738" grid="1" gridSize="10" guides="1" tooltips="1" connect="1" arrows="1" fold="1" page="1" pageScale="1" pageWidth="850" pageHeight="1100" math="0" shadow="0">
      <root>
        <mxCell id="0" />
        <mxCell id="1" parent="0" />
        <mxCell id="uYzhgvm3TknQ1l1kdiPu-11" value="Não" style="text;html=1;align=center;verticalAlign=middle;whiteSpace=wrap;rounded=0;fontStyle=1" parent="1" vertex="1">
          <mxGeometry x="200" y="450" width="60" height="30" as="geometry" />
        </mxCell>
        <mxCell id="uYzhgvm3TknQ1l1kdiPu-10" value="Sim" style="text;html=1;align=center;verticalAlign=middle;whiteSpace=wrap;rounded=0;fontStyle=1" parent="1" vertex="1">
          <mxGeometry x="310" y="110" width="60" height="30" as="geometry" />
        </mxCell>
        <mxCell id="uYzhgvm3TknQ1l1kdiPu-6" value="" style="edgeStyle=orthogonalEdgeStyle;rounded=0;orthogonalLoop=1;jettySize=auto;html=1;" parent="1" source="uYzhgvm3TknQ1l1kdiPu-4" target="uYzhgvm3TknQ1l1kdiPu-5" edge="1">
          <mxGeometry relative="1" as="geometry" />
        </mxCell>
        <mxCell id="uYzhgvm3TknQ1l1kdiPu-4" value="Ínicio" style="ellipse;whiteSpace=wrap;html=1;aspect=fixed;fillColor=#d5e8d4;strokeColor=#82b366;" parent="1" vertex="1">
          <mxGeometry x="40" y="60" width="40" height="40" as="geometry" />
        </mxCell>
        <mxCell id="uYzhgvm3TknQ1l1kdiPu-13" value="" style="edgeStyle=orthogonalEdgeStyle;rounded=0;orthogonalLoop=1;jettySize=auto;html=1;" parent="1" source="uYzhgvm3TknQ1l1kdiPu-5" target="uYzhgvm3TknQ1l1kdiPu-12" edge="1">
          <mxGeometry relative="1" as="geometry" />
        </mxCell>
        <mxCell id="uYzhgvm3TknQ1l1kdiPu-5" value="Tela login" style="whiteSpace=wrap;html=1;" parent="1" vertex="1">
          <mxGeometry x="120" y="50" width="120" height="60" as="geometry" />
        </mxCell>
        <mxCell id="uYzhgvm3TknQ1l1kdiPu-15" value="" style="edgeStyle=orthogonalEdgeStyle;rounded=0;orthogonalLoop=1;jettySize=auto;html=1;" parent="1" source="uYzhgvm3TknQ1l1kdiPu-12" target="uYzhgvm3TknQ1l1kdiPu-14" edge="1">
          <mxGeometry relative="1" as="geometry" />
        </mxCell>
        <mxCell id="uYzhgvm3TknQ1l1kdiPu-17" value="" style="edgeStyle=orthogonalEdgeStyle;rounded=0;orthogonalLoop=1;jettySize=auto;html=1;" parent="1" source="uYzhgvm3TknQ1l1kdiPu-12" target="uYzhgvm3TknQ1l1kdiPu-16" edge="1">
          <mxGeometry relative="1" as="geometry">
            <Array as="points">
              <mxPoint x="360" y="160" />
              <mxPoint x="180" y="160" />
            </Array>
          </mxGeometry>
        </mxCell>
        <mxCell id="uYzhgvm3TknQ1l1kdiPu-12" value="Tem cadastro?" style="rhombus;whiteSpace=wrap;html=1;" parent="1" vertex="1">
          <mxGeometry x="320" y="40" width="80" height="80" as="geometry" />
        </mxCell>
        <mxCell id="uYzhgvm3TknQ1l1kdiPu-19" value="" style="edgeStyle=orthogonalEdgeStyle;rounded=0;orthogonalLoop=1;jettySize=auto;html=1;" parent="1" source="uYzhgvm3TknQ1l1kdiPu-14" target="uYzhgvm3TknQ1l1kdiPu-18" edge="1">
          <mxGeometry relative="1" as="geometry" />
        </mxCell>
        <mxCell id="uYzhgvm3TknQ1l1kdiPu-14" value="Tela cadastro" style="whiteSpace=wrap;html=1;" parent="1" vertex="1">
          <mxGeometry x="460" y="50" width="120" height="60" as="geometry" />
        </mxCell>
        <mxCell id="uYzhgvm3TknQ1l1kdiPu-22" value="" style="edgeStyle=orthogonalEdgeStyle;rounded=0;orthogonalLoop=1;jettySize=auto;html=1;" parent="1" source="uYzhgvm3TknQ1l1kdiPu-16" target="uYzhgvm3TknQ1l1kdiPu-21" edge="1">
          <mxGeometry relative="1" as="geometry" />
        </mxCell>
        <mxCell id="uYzhgvm3TknQ1l1kdiPu-16" value="Realizar login" style="whiteSpace=wrap;html=1;" parent="1" vertex="1">
          <mxGeometry x="120" y="200" width="120" height="60" as="geometry" />
        </mxCell>
        <mxCell id="uYzhgvm3TknQ1l1kdiPu-20" style="edgeStyle=orthogonalEdgeStyle;rounded=0;orthogonalLoop=1;jettySize=auto;html=1;entryX=0.5;entryY=0;entryDx=0;entryDy=0;" parent="1" source="uYzhgvm3TknQ1l1kdiPu-18" target="uYzhgvm3TknQ1l1kdiPu-5" edge="1">
          <mxGeometry relative="1" as="geometry">
            <mxPoint x="290" y="20" as="targetPoint" />
            <Array as="points">
              <mxPoint x="720" y="20" />
              <mxPoint x="180" y="20" />
            </Array>
          </mxGeometry>
        </mxCell>
        <mxCell id="uYzhgvm3TknQ1l1kdiPu-18" value="Salvar dados no banco" style="whiteSpace=wrap;html=1;" parent="1" vertex="1">
          <mxGeometry x="660" y="50" width="120" height="60" as="geometry" />
        </mxCell>
        <mxCell id="uYzhgvm3TknQ1l1kdiPu-37" value="" style="edgeStyle=orthogonalEdgeStyle;rounded=0;orthogonalLoop=1;jettySize=auto;html=1;" parent="1" source="uYzhgvm3TknQ1l1kdiPu-21" target="uYzhgvm3TknQ1l1kdiPu-36" edge="1">
          <mxGeometry relative="1" as="geometry" />
        </mxCell>
        <mxCell id="uYzhgvm3TknQ1l1kdiPu-21" value="Tela upload imagem" style="whiteSpace=wrap;html=1;" parent="1" vertex="1">
          <mxGeometry x="120" y="330" width="120" height="60" as="geometry" />
        </mxCell>
        <mxCell id="uYzhgvm3TknQ1l1kdiPu-26" value="" style="edgeStyle=orthogonalEdgeStyle;rounded=0;orthogonalLoop=1;jettySize=auto;html=1;" parent="1" source="uYzhgvm3TknQ1l1kdiPu-23" target="uYzhgvm3TknQ1l1kdiPu-25" edge="1">
          <mxGeometry relative="1" as="geometry" />
        </mxCell>
        <mxCell id="uYzhgvm3TknQ1l1kdiPu-23" value="Salvar imagem na nuvem (raw)" style="whiteSpace=wrap;html=1;" parent="1" vertex="1">
          <mxGeometry x="120" y="560" width="120" height="60" as="geometry" />
        </mxCell>
        <mxCell id="uYzhgvm3TknQ1l1kdiPu-58" value="" style="edgeStyle=orthogonalEdgeStyle;rounded=0;orthogonalLoop=1;jettySize=auto;html=1;" parent="1" source="uYzhgvm3TknQ1l1kdiPu-25" target="uYzhgvm3TknQ1l1kdiPu-57" edge="1">
          <mxGeometry relative="1" as="geometry" />
        </mxCell>
        <mxCell id="uYzhgvm3TknQ1l1kdiPu-25" value="Tratar imagem (lambda)" style="whiteSpace=wrap;html=1;" parent="1" vertex="1">
          <mxGeometry x="120" y="690" width="120" height="60" as="geometry" />
        </mxCell>
        <mxCell id="uYzhgvm3TknQ1l1kdiPu-72" style="edgeStyle=orthogonalEdgeStyle;rounded=0;orthogonalLoop=1;jettySize=auto;html=1;exitX=1;exitY=0.5;exitDx=0;exitDy=0;entryX=0;entryY=0.5;entryDx=0;entryDy=0;" parent="1" source="uYzhgvm3TknQ1l1kdiPu-27" target="uYzhgvm3TknQ1l1kdiPu-29" edge="1">
          <mxGeometry relative="1" as="geometry" />
        </mxCell>
        <mxCell id="uYzhgvm3TknQ1l1kdiPu-27" value="Classificar padrões da imagem utilizando nosso modelo" style="whiteSpace=wrap;html=1;" parent="1" vertex="1">
          <mxGeometry x="120" y="940" width="120" height="60" as="geometry" />
        </mxCell>
        <mxCell id="uYzhgvm3TknQ1l1kdiPu-73" style="edgeStyle=orthogonalEdgeStyle;rounded=0;orthogonalLoop=1;jettySize=auto;html=1;exitX=1;exitY=0.5;exitDx=0;exitDy=0;entryX=0;entryY=0.5;entryDx=0;entryDy=0;" parent="1" source="uYzhgvm3TknQ1l1kdiPu-29" target="uYzhgvm3TknQ1l1kdiPu-31" edge="1">
          <mxGeometry relative="1" as="geometry" />
        </mxCell>
        <mxCell id="uYzhgvm3TknQ1l1kdiPu-29" value="Retornar apoio de diagnóstico facial" style="whiteSpace=wrap;html=1;" parent="1" vertex="1">
          <mxGeometry x="280" y="940" width="120" height="60" as="geometry" />
        </mxCell>
        <mxCell id="uYzhgvm3TknQ1l1kdiPu-31" value="" style="ellipse;whiteSpace=wrap;html=1;fillColor=#f8cecc;strokeColor=#b85450;" parent="1" vertex="1">
          <mxGeometry x="480" y="950" width="40" height="40" as="geometry" />
        </mxCell>
        <mxCell id="uYzhgvm3TknQ1l1kdiPu-38" style="edgeStyle=orthogonalEdgeStyle;rounded=0;orthogonalLoop=1;jettySize=auto;html=1;entryX=0.5;entryY=0;entryDx=0;entryDy=0;" parent="1" source="uYzhgvm3TknQ1l1kdiPu-36" target="uYzhgvm3TknQ1l1kdiPu-23" edge="1">
          <mxGeometry relative="1" as="geometry" />
        </mxCell>
        <mxCell id="uYzhgvm3TknQ1l1kdiPu-41" value="" style="edgeStyle=orthogonalEdgeStyle;rounded=0;orthogonalLoop=1;jettySize=auto;html=1;" parent="1" source="uYzhgvm3TknQ1l1kdiPu-36" target="uYzhgvm3TknQ1l1kdiPu-40" edge="1">
          <mxGeometry relative="1" as="geometry" />
        </mxCell>
        <mxCell id="uYzhgvm3TknQ1l1kdiPu-36" value="Imagem é valida?" style="rhombus;whiteSpace=wrap;html=1;" parent="1" vertex="1">
          <mxGeometry x="140" y="440" width="80" height="80" as="geometry" />
        </mxCell>
        <mxCell id="uYzhgvm3TknQ1l1kdiPu-39" value="Sim" style="text;html=1;align=center;verticalAlign=middle;whiteSpace=wrap;rounded=0;fontStyle=1" parent="1" vertex="1">
          <mxGeometry x="130" y="510" width="60" height="30" as="geometry" />
        </mxCell>
        <mxCell id="uYzhgvm3TknQ1l1kdiPu-44" style="edgeStyle=orthogonalEdgeStyle;rounded=0;orthogonalLoop=1;jettySize=auto;html=1;entryX=1;entryY=0.5;entryDx=0;entryDy=0;" parent="1" source="uYzhgvm3TknQ1l1kdiPu-40" target="uYzhgvm3TknQ1l1kdiPu-21" edge="1">
          <mxGeometry relative="1" as="geometry">
            <Array as="points">
              <mxPoint x="340" y="360" />
            </Array>
          </mxGeometry>
        </mxCell>
        <mxCell id="uYzhgvm3TknQ1l1kdiPu-40" value="Retornar erro" style="whiteSpace=wrap;html=1;" parent="1" vertex="1">
          <mxGeometry x="280" y="450" width="120" height="60" as="geometry" />
        </mxCell>
        <mxCell id="uYzhgvm3TknQ1l1kdiPu-46" style="edgeStyle=orthogonalEdgeStyle;rounded=0;orthogonalLoop=1;jettySize=auto;html=1;exitX=0;exitY=0.5;exitDx=0;exitDy=0;entryX=1;entryY=0.5;entryDx=0;entryDy=0;" parent="1" source="uYzhgvm3TknQ1l1kdiPu-45" target="uYzhgvm3TknQ1l1kdiPu-23" edge="1">
          <mxGeometry relative="1" as="geometry" />
        </mxCell>
        <mxCell id="uYzhgvm3TknQ1l1kdiPu-45" value="Crawler buscando novas imagens no google" style="whiteSpace=wrap;html=1;" parent="1" vertex="1">
          <mxGeometry x="280" y="560" width="120" height="60" as="geometry" />
        </mxCell>
        <mxCell id="uYzhgvm3TknQ1l1kdiPu-49" value="" style="shape=image;html=1;verticalAlign=top;verticalLabelPosition=bottom;labelBackgroundColor=#ffffff;imageAspect=0;aspect=fixed;image=https://cdn1.iconfinder.com/data/icons/material-core/20/schedule-128.png" parent="1" vertex="1">
          <mxGeometry x="402" y="560" width="20" height="20" as="geometry" />
        </mxCell>
        <mxCell id="uYzhgvm3TknQ1l1kdiPu-50" value="Diariamente" style="text;html=1;align=center;verticalAlign=middle;whiteSpace=wrap;rounded=0;" parent="1" vertex="1">
          <mxGeometry x="426" y="555" width="60" height="30" as="geometry" />
        </mxCell>
        <mxCell id="uYzhgvm3TknQ1l1kdiPu-71" style="edgeStyle=orthogonalEdgeStyle;rounded=0;orthogonalLoop=1;jettySize=auto;html=1;exitX=0.5;exitY=1;exitDx=0;exitDy=0;entryX=0.5;entryY=0;entryDx=0;entryDy=0;" parent="1" source="uYzhgvm3TknQ1l1kdiPu-57" target="uYzhgvm3TknQ1l1kdiPu-27" edge="1">
          <mxGeometry relative="1" as="geometry" />
        </mxCell>
        <mxCell id="uYzhgvm3TknQ1l1kdiPu-57" value="&lt;br&gt;&lt;span style=&quot;color: rgb(0, 0, 0); font-family: Helvetica; font-size: 12px; font-style: normal; font-variant-ligatures: normal; font-variant-caps: normal; font-weight: 400; letter-spacing: normal; orphans: 2; text-align: center; text-indent: 0px; text-transform: none; widows: 2; word-spacing: 0px; -webkit-text-stroke-width: 0px; white-space: normal; background-color: rgb(251, 251, 251); text-decoration-thickness: initial; text-decoration-style: initial; text-decoration-color: initial; display: inline !important; float: none;&quot;&gt;salvar na nuvem (consumed)&lt;/span&gt;&lt;div&gt;&lt;br/&gt;&lt;/div&gt;" style="whiteSpace=wrap;html=1;" parent="1" vertex="1">
          <mxGeometry x="120" y="820" width="120" height="60" as="geometry" />
        </mxCell>
        <mxCell id="uYzhgvm3TknQ1l1kdiPu-67" style="edgeStyle=orthogonalEdgeStyle;rounded=0;orthogonalLoop=1;jettySize=auto;html=1;exitX=0;exitY=0.5;exitDx=0;exitDy=0;entryX=1;entryY=0.5;entryDx=0;entryDy=0;" parent="1" source="uYzhgvm3TknQ1l1kdiPu-65" target="uYzhgvm3TknQ1l1kdiPu-57" edge="1">
          <mxGeometry relative="1" as="geometry" />
        </mxCell>
        <mxCell id="uYzhgvm3TknQ1l1kdiPu-65" value="Treinar modelo usando base atualizada" style="whiteSpace=wrap;html=1;" parent="1" vertex="1">
          <mxGeometry x="280" y="820" width="120" height="60" as="geometry" />
        </mxCell>
        <mxCell id="uYzhgvm3TknQ1l1kdiPu-69" value="" style="shape=image;html=1;verticalAlign=top;verticalLabelPosition=bottom;labelBackgroundColor=#ffffff;imageAspect=0;aspect=fixed;image=https://cdn1.iconfinder.com/data/icons/material-core/20/schedule-128.png" parent="1" vertex="1">
          <mxGeometry x="401" y="819" width="20" height="20" as="geometry" />
        </mxCell>
        <mxCell id="uYzhgvm3TknQ1l1kdiPu-70" value="Mensalmente" style="text;html=1;align=center;verticalAlign=middle;whiteSpace=wrap;rounded=0;" parent="1" vertex="1">
          <mxGeometry x="428" y="814" width="60" height="30" as="geometry" />
        </mxCell>
      </root>
    </mxGraphModel>
  </diagram>
</mxfile>
